<?xml version="1.0" encoding="UTF-8"?>
<!-- Wareborn alliance emblem object: sunburst-outline (shapes-outline, sheet index 22).
     Traced by tools/emblem-objects/trace_objects.py.
     Coordinates are thousandths of the painter's [-1, 1] box, y down,
     filled NON-ZERO. The colour here is the source ink and is NOT part
     of the object - the emblem system colours every layer itself. -->
<svg xmlns="http://www.w3.org/2000/svg" viewBox="-1000 -1000 2000 2000"
     width="256" height="256">
  <path fill="#C67C24" fill-rule="nonzero" d="M-980 -7 L-978 8 L-786 104 L-771 104 L-757 118 L-742 119 L-727 133 L-712 140 L-705 126 L-707 67 L-727 46 L-742 46 L-757 30 L-799 8 L-796 -7 L-727 -44 L-706 -66 L-705 -140 L-712 -148 L-727 -133 L-742 -133 L-757 -127 L-801 -103 L-816 -88 L-831 -88 L-845 -74 L-860 -73 L-875 -59 L-890 -57 L-904 -44 Z M-690 -673 L-675 -643 L-671 -613 L-660 -599 L-660 -584 L-646 -554 L-641 -525 L-631 -510 L-630 -495 L-616 -466 L-610 -436 L-594 -402 L-577 -406 L-572 -421 L-542 -466 L-545 -495 L-557 -510 L-557 -525 L-561 -539 L-572 -554 L-572 -569 L-564 -576 L-490 -547 L-461 -547 L-431 -576 L-416 -579 L-403 -599 L-416 -606 L-431 -606 L-446 -619 L-476 -621 L-490 -633 L-520 -636 L-535 -647 L-564 -650 L-579 -661 L-609 -665 L-638 -678 L-668 -680 L-683 -691 Z M-690 673 L-683 681 L-668 677 L-653 666 L-623 664 L-594 651 L-564 648 L-550 636 L-520 632 L-505 621 L-476 618 L-461 607 L-414 599 L-410 584 L-416 578 L-476 540 L-490 547 L-520 550 L-535 562 L-564 564 L-573 555 L-572 540 L-557 510 L-557 496 L-532 466 L-572 422 L-574 407 L-594 389 L-613 422 L-616 451 L-628 466 L-631 496 L-643 510 L-659 555 L-660 584 L-673 599 L-675 629 L-686 644 Z M-668 -22 L-667 8 L-660 22 L-659 111 L-656 126 L-646 141 L-643 185 L-631 200 L-628 230 L-616 244 L-616 259 L-610 274 L-542 392 L-505 426 L-490 400 L-476 396 L-461 398 L-409 451 L-402 466 L-402 481 L-421 496 L-421 510 L-387 542 L-372 547 L-357 562 L-328 577 L-313 591 L-298 592 L-283 604 L-269 607 L-239 621 L-224 621 L-209 632 L-135 649 L-106 649 L-100 644 L-104 614 L-101 570 L-88 555 L-106 538 L-150 533 L-165 520 L-195 518 L-209 504 L-224 503 L-239 491 L-254 488 L-269 475 L-283 474 L-313 449 L-328 444 L-372 406 L-387 400 L-424 363 L-429 348 L-483 274 L-513 215 L-514 200 L-527 185 L-529 156 L-542 141 L-546 96 L-557 67 L-557 -66 L-544 -111 L-542 -140 L-532 -155 L-527 -185 L-517 -199 L-513 -229 L-498 -244 L-498 -258 L-483 -273 L-439 -347 L-342 -443 L-313 -459 L-298 -473 L-283 -476 L-224 -511 L-180 -532 L-150 -538 L-135 -547 L-106 -549 L-62 -562 L72 -562 L101 -551 L146 -547 L160 -537 L190 -532 L205 -519 L219 -517 L264 -491 L279 -488 L293 -474 L308 -473 L338 -446 L367 -429 L419 -377 L464 -318 L493 -273 L495 -258 L523 -214 L528 -185 L537 -170 L542 -140 L552 -125 L560 37 L552 111 L523 200 L482 274 L478 289 L452 318 L449 333 L338 444 L323 448 L293 474 L279 476 L234 503 L219 505 L205 518 L175 521 L160 533 L131 534 L86 547 L-62 548 L-68 555 L-64 570 L-47 577 L7 629 L11 644 L27 660 L86 659 L101 651 L146 646 L175 636 L205 633 L219 621 L249 618 L264 607 L279 606 L293 592 L308 592 L323 577 L338 577 L353 562 L367 560 L397 533 L412 530 L432 510 L434 496 L419 466 L419 451 L432 422 L432 407 L441 398 L486 400 L500 423 L515 424 L577 348 L607 289 L626 244 L626 230 L640 215 L641 185 L653 170 L656 126 L669 96 L669 -81 L665 -111 L655 -125 L653 -170 L641 -199 L637 -229 L626 -244 L625 -258 L611 -273 L611 -288 L576 -347 L535 -406 L515 -425 L500 -429 L471 -408 L456 -406 L412 -451 L403 -466 L428 -495 L431 -510 L397 -546 L367 -562 L353 -576 L338 -576 L323 -591 L308 -591 L293 -606 L279 -606 L264 -621 L249 -621 L234 -632 L205 -636 L190 -646 L175 -650 L160 -650 L154 -643 L153 -628 L146 -617 L131 -614 L86 -617 L72 -627 L57 -619 L38 -628 L-62 -630 L-91 -644 L-121 -632 L-135 -650 L-180 -649 L-209 -636 L-224 -634 L-239 -621 L-269 -617 L-283 -606 L-298 -604 L-342 -576 L-357 -562 L-372 -559 L-409 -525 L-418 -510 L-393 -495 L-391 -480 L-392 -451 L-416 -421 L-461 -383 L-476 -394 L-490 -394 L-501 -406 L-500 -421 L-505 -427 L-520 -421 L-585 -332 L-586 -318 L-601 -303 L-601 -288 L-615 -273 L-616 -258 L-629 -244 L-631 -214 L-643 -199 L-646 -140 L-643 -125 L-630 -111 L-630 -96 L-638 -81 L-656 -66 Z M-143 703 L-113 762 L-98 777 L-98 791 L-84 806 L-84 821 L-69 836 L-69 851 L-54 865 L-53 880 L-39 895 L-37 910 L-25 925 L-2 974 L20 954 L152 703 L146 696 L72 698 L39 732 L35 747 L22 762 L20 777 L12 785 L-2 790 L-25 762 L-27 747 L-39 732 L-76 700 L-135 695 Z M-141 -717 L-135 -700 L-121 -710 L-62 -712 L-40 -732 L-2 -801 L12 -799 L20 -791 L20 -776 L40 -732 L57 -710 L101 -710 L131 -695 L148 -702 L138 -717 L136 -732 L123 -747 L121 -761 L94 -806 L92 -820 L79 -835 L77 -850 L64 -865 L62 -880 L49 -894 L47 -909 L35 -924 L32 -939 L20 -954 L12 -973 L-2 -974 L-8 -968 L-9 -954 L-35 -924 L-54 -880 L-67 -865 L-69 -850 L-81 -835 L-84 -820 L-95 -806 L-128 -732 Z M404 -599 L441 -563 L471 -547 L486 -549 L500 -562 L560 -567 L574 -560 L552 -480 L542 -466 L589 -415 L604 -406 L611 -421 L611 -436 L623 -451 L625 -466 L640 -495 L641 -510 L651 -525 L656 -554 L668 -569 L670 -599 L684 -613 L700 -673 L693 -680 L648 -677 L634 -665 L589 -661 L574 -650 L545 -649 L515 -636 L486 -633 L471 -621 L441 -619 Z M411 584 L426 602 L471 607 L486 618 L515 621 L530 633 L560 636 L574 648 L604 651 L634 665 L663 666 L678 677 L693 680 L699 673 L700 658 L685 629 L681 599 L670 584 L670 570 L641 496 L636 466 L625 451 L619 422 L604 391 L589 409 L567 451 L553 466 L557 496 L567 510 L570 525 L582 540 L583 555 L574 562 L545 562 L486 539 L471 547 L456 549 L426 577 Z M702 126 L707 144 L722 142 L752 119 L767 118 L781 104 L796 103 L811 89 L826 88 L841 74 L855 74 L870 59 L885 59 L900 45 L914 43 L929 30 L944 28 L959 15 L974 12 L980 -7 L974 -13 L959 -14 L944 -27 L929 -29 L914 -43 L900 -44 L885 -59 L870 -59 L855 -74 L841 -74 L826 -88 L811 -88 L796 -103 L737 -133 L722 -146 L707 -143 L705 -140 L715 -111 L719 -51 L737 -35 L792 -7 L795 8 L767 20 L716 52 L715 111 Z"/>
</svg>
