<?xml version="1.0" encoding="UTF-8"?>
<!-- Wareborn alliance emblem object: temple-roundel (japan, sheet index 25).
     Traced by tools/emblem-objects/trace_objects.py.
     Coordinates are thousandths of the painter's [-1, 1] box, y down,
     filled NON-ZERO. The colour here is the source ink and is NOT part
     of the object - the emblem system colours every layer itself. -->
<svg xmlns="http://www.w3.org/2000/svg" viewBox="-1000 -1000 2000 2000"
     width="256" height="256">
  <path fill="#1C375E" fill-rule="nonzero" d="M-957 -42 L-953 -25 L-932 -17 L-780 -20 L-746 -18 L-737 -8 L-740 25 L-763 39 L-814 44 L-932 38 L-949 46 L-956 59 L-937 211 L-924 228 L-923 262 L-890 346 L-889 363 L-805 532 L-789 549 L-769 583 L-685 684 L-628 741 L-544 809 L-527 815 L-459 861 L-392 896 L-307 929 L-189 963 L-138 968 L-121 977 L-37 980 L-15 972 L-11 786 L-3 773 L31 774 L39 786 L36 870 L39 972 L48 980 L65 980 L115 977 L217 960 L234 949 L267 946 L352 912 L369 910 L504 843 L622 757 L696 684 L763 600 L829 498 L833 482 L848 465 L870 397 L917 296 L935 228 L938 177 L952 144 L955 59 L943 44 L757 47 L741 36 L724 34 L453 34 L386 39 L352 34 L82 35 L65 37 L37 59 L26 76 L20 228 L14 235 L-3 237 L-11 211 L-12 59 L-18 42 L-37 34 L-645 38 L-696 34 L-713 25 L-721 8 L-719 -8 L-713 -14 L-679 -17 L-37 -17 L-19 -25 L-12 -42 L-8 -161 L14 -173 L20 -161 L28 -93 L43 -76 L46 -42 L65 -19 L741 -17 L774 -23 L943 -18 L953 -25 L957 -42 L949 -161 L937 -177 L935 -228 L918 -262 L913 -313 L884 -363 L883 -380 L869 -414 L844 -448 L833 -482 L798 -549 L724 -648 L690 -674 L617 -752 L555 -804 L470 -861 L403 -896 L284 -943 L234 -950 L217 -962 L183 -963 L115 -978 L48 -980 L39 -972 L39 -803 L14 -777 L-3 -775 L-11 -786 L-13 -972 L-20 -978 L-37 -980 L-104 -980 L-138 -967 L-206 -960 L-223 -951 L-273 -941 L-408 -888 L-544 -806 L-627 -735 L-729 -631 L-753 -600 L-821 -498 L-838 -465 L-839 -448 L-873 -397 L-907 -313 L-907 -296 L-921 -262 L-924 -228 L-935 -211 Z M-853 -110 L-844 -127 L-839 -194 L-828 -211 L-819 -262 L-790 -329 L-778 -380 L-797 -387 L-814 -381 L-829 -397 L-831 -414 L-814 -431 L-780 -421 L-763 -420 L-746 -429 L-696 -509 L-662 -545 L-645 -554 L-611 -525 L-580 -515 L-579 -498 L-666 -363 L-670 -346 L-699 -296 L-726 -211 L-725 -194 L-713 -187 L-594 -196 L-510 -188 L-408 -186 L-189 -187 L-175 -194 L-165 -211 L-167 -346 L-189 -370 L-223 -375 L-239 -371 L-247 -363 L-251 -279 L-273 -270 L-307 -282 L-375 -284 L-594 -276 L-603 -296 L-532 -414 L-486 -465 L-484 -482 L-476 -491 L-442 -511 L-392 -556 L-290 -619 L-172 -656 L-163 -667 L-163 -752 L-172 -764 L-290 -724 L-408 -656 L-544 -543 L-556 -566 L-597 -600 L-599 -617 L-553 -667 L-465 -735 L-442 -759 L-392 -778 L-341 -808 L-256 -845 L-239 -845 L-206 -860 L-172 -862 L-138 -875 L-104 -877 L-94 -870 L-87 -718 L-90 -498 L-104 -484 L-155 -486 L-163 -498 L-164 -549 L-172 -561 L-206 -556 L-239 -532 L-273 -490 L-324 -488 L-375 -470 L-442 -394 L-451 -380 L-451 -363 L-425 -346 L-375 -338 L-358 -341 L-324 -393 L-307 -406 L-172 -403 L-161 -414 L-155 -431 L-138 -440 L-121 -435 L-87 -415 L-82 -177 L-82 -110 L-87 -99 L-104 -90 L-324 -89 L-335 -110 L-334 -127 L-346 -144 L-358 -151 L-408 -152 L-425 -138 L-432 -127 L-428 -110 L-442 -97 L-780 -101 L-831 -91 L-848 -94 Z M-850 144 L-850 127 L-831 118 L-442 118 L-432 127 L-433 177 L-427 194 L-442 206 L-510 204 L-561 214 L-713 215 L-730 228 L-709 279 L-703 313 L-637 431 L-607 465 L-577 481 L-542 448 L-535 431 L-597 313 L-577 296 L-425 300 L-273 294 L-256 304 L-250 313 L-245 397 L-256 403 L-324 401 L-341 392 L-375 351 L-392 345 L-442 353 L-451 363 L-451 380 L-433 414 L-358 489 L-324 493 L-238 482 L-222 498 L-231 515 L-231 549 L-225 566 L-206 578 L-189 601 L-172 593 L-166 583 L-161 482 L-155 476 L-104 483 L-87 491 L-82 498 L-85 684 L-92 853 L-98 870 L-104 875 L-138 864 L-206 857 L-223 845 L-256 839 L-341 805 L-408 772 L-459 741 L-510 699 L-527 693 L-561 710 L-569 701 L-558 667 L-587 617 L-586 600 L-561 573 L-544 564 L-510 578 L-459 623 L-358 686 L-273 727 L-206 748 L-189 758 L-172 760 L-164 752 L-166 651 L-172 643 L-239 637 L-290 622 L-425 537 L-493 474 L-510 475 L-552 515 L-566 549 L-595 583 L-611 594 L-628 593 L-683 532 L-770 397 L-772 363 L-804 313 L-811 279 L-838 211 L-840 161 Z M-365 194 L-350 144 L-338 127 L-324 118 L-155 116 L-104 105 L-96 110 L-89 127 L-85 228 L-85 414 L-104 422 L-155 415 L-169 397 L-167 329 L-176 228 L-189 205 L-358 209 Z M-13 600 L-11 566 L-3 558 L14 558 L35 583 L31 649 L14 684 L-3 680 L-11 667 Z M-11 -634 L-8 -667 L14 -688 L22 -667 L23 -617 L23 -566 L14 -543 L-3 -544 L-8 -549 Z M-11 313 L-3 301 L14 301 L30 313 L37 329 L37 363 L20 397 L25 431 L14 449 L-4 431 L-8 414 Z M-10 -448 L-3 -463 L14 -472 L20 -465 L25 -448 L24 -414 L14 -363 L-9 -414 Z M-9 -228 L-5 -279 L14 -308 L26 -279 L27 -262 L24 -211 L14 -189 L-9 -211 Z M73 127 L82 111 L98 110 L318 118 L338 127 L347 177 L369 191 L386 187 L393 177 L394 144 L400 127 L419 118 L842 118 L851 127 L848 161 L834 194 L830 245 L800 329 L761 414 L712 498 L656 571 L639 575 L622 561 L605 558 L597 566 L595 583 L612 617 L597 634 L539 667 L521 698 L487 724 L436 758 L335 811 L200 862 L149 864 L98 876 L84 853 L80 819 L83 718 L76 651 L79 498 L98 487 L149 478 L153 482 L159 498 L164 583 L183 604 L200 595 L217 594 L234 583 L242 566 L242 498 L251 489 L352 490 L403 455 L426 431 L431 414 L434 397 L430 380 L419 368 L386 358 L369 368 L352 392 L335 404 L267 406 L251 401 L246 397 L244 363 L244 313 L251 301 L267 292 L453 302 L588 303 L599 313 L595 329 L551 397 L549 414 L572 439 L605 456 L622 446 L676 363 L729 228 L724 217 L707 212 L690 216 L656 210 L622 214 L403 210 L369 198 L352 206 L251 209 L183 205 L172 211 L163 228 L160 414 L149 426 L98 426 L78 397 Z M75 -110 L80 -397 L82 -414 L98 -420 L149 -422 L165 -414 L166 -211 L171 -194 L183 -186 L521 -187 L605 -196 L707 -190 L724 -195 L730 -211 L717 -228 L698 -296 L681 -329 L681 -346 L648 -397 L648 -414 L628 -448 L605 -469 L588 -476 L572 -475 L568 -482 L581 -515 L582 -532 L572 -544 L555 -549 L538 -543 L528 -549 L487 -603 L419 -654 L335 -704 L301 -720 L267 -729 L251 -742 L183 -760 L166 -760 L158 -752 L161 -667 L173 -651 L183 -644 L234 -640 L284 -623 L352 -589 L419 -541 L488 -482 L529 -431 L580 -346 L603 -296 L588 -277 L487 -284 L386 -283 L352 -275 L318 -282 L267 -273 L257 -279 L248 -296 L246 -380 L251 -391 L267 -401 L318 -396 L340 -380 L352 -359 L386 -347 L436 -351 L459 -363 L444 -397 L403 -445 L369 -473 L335 -487 L249 -482 L241 -498 L242 -566 L233 -583 L217 -591 L183 -593 L166 -583 L158 -482 L149 -473 L98 -475 L81 -482 L77 -498 L82 -684 L89 -853 L92 -870 L98 -876 L132 -874 L166 -863 L200 -862 L234 -848 L267 -841 L284 -830 L301 -828 L352 -807 L487 -727 L555 -676 L615 -617 L619 -600 L591 -566 L605 -555 L639 -562 L656 -558 L698 -515 L730 -465 L771 -431 L767 -397 L815 -296 L834 -211 L845 -194 L854 -110 L854 -93 L842 -87 L741 -93 L436 -98 L427 -110 L428 -127 L419 -149 L403 -150 L386 -142 L369 -157 L352 -157 L343 -144 L342 -110 L335 -98 L318 -95 L217 -90 L132 -93 L82 -97 Z M158 752 L166 760 L183 760 L284 727 L419 657 L497 600 L572 529 L580 515 L572 502 L521 456 L403 558 L301 623 L217 646 L200 655 L183 654 L166 660 L160 667 Z"/>
</svg>
