<?xml version="1.0" encoding="UTF-8"?>
<!-- Wareborn alliance emblem device: Bull head.
     Traced from tools/emblem-devices/device-sheet.png by trace_devices.py.
     Coordinates are thousandths of the painter's [-1, 1] device box. -->
<svg xmlns="http://www.w3.org/2000/svg" viewBox="-1000 -1000 2000 2000"
     width="256" height="256">
  <path fill="#AF7027" d="M-980 -760 L-976 -732 L-973 -561 L-977 -462 L-940 -419 L-792 -270 L-593 -270 L-579 -266 L-551 -236 L-536 -231 L-465 -233 L-451 -242 L-430 -277 L-444 -291 L-460 -320 L-480 -340 L-508 -345 L-551 -341 L-565 -344 L-587 -376 L-588 -391 L-579 -398 L-565 -385 L-536 -373 L-465 -372 L-430 -334 L-408 -298 L-394 -298 L-384 -305 L-377 -320 L-381 -391 L-378 -447 L-394 -468 L-423 -464 L-678 -465 L-693 -464 L-707 -454 L-764 -501 L-792 -533 L-806 -540 L-835 -537 L-848 -547 L-842 -561 L-842 -675 L-849 -689 L-863 -696 L-884 -717 L-885 -732 L-849 -758 L-833 -774 L-828 -788 L-828 -803 L-814 -831 L-813 -859 L-799 -902 L-799 -930 L-788 -945 L-785 -959 L-792 -966 L-806 -958 L-813 -945 L-868 -888 L-884 -859 Z M-686 7 L-678 14 L-636 14 L-622 27 L-607 29 L-508 25 L-501 7 L-504 -64 L-501 -92 L-501 -121 L-508 -132 L-551 -128 L-593 -85 L-622 -67 L-638 -50 L-643 -35 Z M-573 -50 L-565 -60 L-536 -73 L-523 -64 L-536 -39 L-551 -28 L-565 -28 L-572 -35 Z M-455 -149 L-448 -21 L-437 -14 L-266 -14 L-254 -7 L-146 107 L-141 121 L-144 234 L-117 263 L-112 277 L-116 306 L-112 590 L-117 632 L-82 654 L-75 661 L-75 675 L-68 687 L-46 703 L-68 725 L-82 731 L-96 730 L-110 711 L-146 689 L-146 632 L-134 575 L-139 571 L-153 569 L-207 632 L-243 661 L-240 760 L-244 774 L-241 789 L-153 878 L-110 842 L-25 817 L-19 803 L-18 732 L-32 703 L-25 696 L18 686 L32 696 L60 696 L67 689 L78 661 L110 632 L110 277 L114 263 L138 234 L138 192 L143 163 L138 149 L138 121 L234 21 L259 -10 L273 -14 L444 -17 L448 -21 L449 -35 L451 -163 L355 -263 L328 -277 L323 -291 L323 -419 L321 -433 L309 -447 L307 -462 L288 -474 L245 -473 L238 -462 L238 -348 L231 -336 L217 -333 L174 -340 L167 -334 L170 -291 L181 -277 L182 -263 L217 -223 L231 -213 L245 -213 L256 -220 L302 -271 L309 -263 L309 -249 L295 -234 L296 -220 L320 -192 L311 -177 L290 -163 L259 -128 L245 -125 L217 -99 L25 92 L20 107 L25 121 L25 263 L18 270 L3 274 L-11 273 L-20 263 L-24 149 L-19 107 L-25 97 L-131 -7 L-161 -50 L-256 -149 L-266 -156 L-277 -149 L-281 -138 L-289 -163 L-327 -206 L-318 -220 L-295 -241 L-252 -271 L-238 -270 L-227 -263 L-235 -249 L-255 -234 L-259 -206 L-195 -138 L-181 -138 L-161 -163 L-156 -192 L-146 -206 L-141 -220 L-153 -241 L-181 -239 L-195 -264 L-224 -272 L-226 -277 L-223 -320 L-227 -447 L-231 -462 L-238 -469 L-295 -469 L-302 -462 L-302 -291 L-309 -280 L-337 -270 L-394 -223 L-441 -177 Z M-444 50 L-444 234 L-437 249 L-423 256 L-323 355 L-309 348 L-295 325 L-188 220 L-189 192 L-210 175 L-281 176 L-323 185 L-369 135 L-373 121 L-373 50 L-380 36 L-437 35 Z M-373 -135 L-366 -142 L-337 -114 L-309 -115 L-295 -129 L-288 -121 L-309 -99 L-352 -99 L-373 -121 Z M-330 78 L-326 92 L-309 103 L-281 132 L-266 134 L-252 127 L-231 107 L-224 92 L-266 44 L-281 43 L-309 71 L-323 71 Z M-259 334 L-259 504 L-245 519 L-240 533 L-224 554 L-175 504 L-174 291 L-195 275 L-238 327 L-252 327 Z M-174 -334 L-174 -291 L-167 -284 L75 -290 L117 -284 L129 -291 L131 -305 L124 -334 L117 -341 L75 -340 L60 -327 L49 -334 L43 -362 L47 -433 L32 -453 L3 -449 L-25 -453 L-30 -447 L-39 -433 L-32 -391 L-32 -362 L-39 -347 L-53 -341 L-96 -345 L-124 -341 L-153 -345 L-167 -341 Z M-160 -575 L-160 -405 L-153 -392 L-124 -398 L-110 -394 L-96 -398 L-89 -405 L-89 -504 L-82 -511 L89 -511 L96 -504 L99 -391 L117 -383 L146 -383 L160 -379 L180 -391 L177 -447 L180 -575 L174 -590 L160 -594 L146 -589 L18 -586 L3 -577 L-25 -589 L-124 -589 L-153 -593 Z M-124 916 L-103 931 L-82 966 L75 964 L91 959 L124 916 L124 902 L89 867 L-82 867 L-100 874 L-103 888 L-117 902 Z M-124 -78 L-101 -64 L-18 21 L-11 39 L3 34 L94 -64 L82 -92 L85 -106 L82 -121 L75 -128 L32 -128 L25 -121 L25 -64 L20 -50 L3 -28 L-11 -28 L-27 -50 L-32 -64 L-33 -135 L-56 -163 L-53 -166 L-39 -170 L103 -170 L126 -135 L160 -99 L174 -103 L181 -121 L202 -142 L217 -144 L234 -163 L217 -184 L188 -207 L160 -241 L-96 -241 L-111 -234 L-108 -121 L-122 -92 Z M-19 -547 L3 -574 L15 -547 L3 -539 L-11 -540 Z M25 732 L25 803 L28 817 L46 824 L89 824 L103 835 L117 838 L146 871 L160 871 L244 789 L247 774 L244 661 L237 646 L160 568 L146 564 L138 575 L138 646 L153 675 L103 732 L89 730 L75 716 L60 710 L46 710 L33 717 Z M167 306 L167 504 L217 559 L231 556 L236 547 L224 504 L223 334 L188 300 L174 298 Z M195 192 L195 249 L263 306 L272 334 L288 351 L302 355 L316 351 L401 270 L429 249 L437 234 L437 36 L430 29 L415 30 L373 43 L366 50 L366 135 L330 171 L302 185 L259 181 L245 185 L202 185 Z M225 92 L227 107 L245 127 L259 128 L273 135 L288 128 L323 92 L316 73 L302 68 L273 45 Z M252 419 L252 490 L259 497 L273 488 L280 476 L280 462 L295 448 L295 433 L308 419 L309 405 L273 356 L254 377 Z M266 291 L278 277 L280 263 L288 254 L302 249 L310 263 L291 291 L273 302 Z M307 -106 L333 -121 L344 -146 L359 -146 L376 -121 L359 -97 L344 -85 L316 -85 L308 -92 Z M380 -320 L384 -305 L401 -288 L430 -284 L472 -234 L529 -234 L558 -230 L572 -232 L600 -257 L685 -264 L785 -264 L805 -277 L891 -376 L977 -462 L980 -476 L977 -490 L977 -760 L972 -774 L906 -845 L875 -888 L813 -958 L806 -945 L807 -930 L812 -888 L820 -874 L823 -817 L835 -788 L835 -760 L842 -753 L856 -753 L891 -732 L893 -717 L870 -696 L835 -675 L835 -589 L864 -561 L878 -533 L870 -523 L856 -524 L827 -559 L813 -552 L714 -459 L700 -465 L401 -465 L394 -447 L395 -348 Z M475 -334 L494 -362 L515 -377 L543 -375 L558 -371 L565 -362 L558 -347 L543 -341 L529 -341 L515 -324 L501 -318 L479 -320 Z M508 -121 L508 7 L515 23 L558 18 L614 19 L643 7 L663 -7 L669 -21 L660 -35 L558 -136 L543 -142 L515 -142 L508 -135 Z M548 -64 L558 -71 L586 -71 L593 -64 L599 -50 L572 -32 L558 -37 L548 -50 Z"/>
</svg>
