<?xml version="1.0" encoding="UTF-8"?>
<!-- Wareborn alliance emblem device: Airship.
     Traced from tools/emblem-devices/device-sheet.png by trace_devices.py.
     Coordinates are thousandths of the painter's [-1, 1] device box. -->
<svg xmlns="http://www.w3.org/2000/svg" viewBox="-1000 -1000 2000 2000"
     width="256" height="256">
  <path fill="#993A28" d="M-980 -153 L-963 -139 L-907 -67 L-847 -6 L-830 18 L-817 27 L-800 6 L-781 -55 L-829 -83 L-841 -86 L-852 -104 L-841 -106 L-817 -95 L-792 -75 L-780 -71 L-774 -79 L-774 -92 L-774 -128 L-780 -137 L-939 -147 L-946 -153 L-939 -163 L-902 -171 L-780 -171 L-774 -177 L-775 -238 L-786 -250 L-789 -287 L-796 -299 L-807 -336 L-817 -342 L-835 -324 L-884 -263 L-979 -165 Z M-851 -214 L-817 -242 L-805 -242 L-801 -238 L-805 -225 L-841 -208 Z M-777 -360 L-755 -324 L-750 -311 L-750 -299 L-743 -288 L-731 -283 L-719 -290 L-695 -295 L-670 -305 L-658 -305 L-634 -315 L-597 -321 L-548 -340 L-524 -343 L-499 -354 L-463 -356 L-452 -373 L-456 -385 L-458 -421 L-469 -446 L-478 -495 L-487 -501 L-493 -495 L-497 -483 L-517 -458 L-530 -434 L-530 -421 L-548 -394 L-572 -390 L-609 -377 L-621 -366 L-634 -366 L-646 -356 L-673 -348 L-676 -360 L-658 -379 L-646 -381 L-623 -397 L-609 -415 L-572 -417 L-568 -421 L-542 -470 L-548 -486 L-585 -464 L-597 -464 L-707 -406 L-719 -403 L-731 -391 L-743 -390 L-756 -379 L-768 -379 L-776 -373 Z M-773 55 L-731 82 L-719 86 L-707 97 L-695 98 L-682 109 L-670 110 L-658 120 L-646 122 L-634 133 L-621 133 L-616 128 L-615 116 L-607 104 L-605 92 L-621 78 L-646 73 L-658 62 L-670 59 L-691 43 L-703 31 L-695 19 L-670 35 L-658 37 L-646 46 L-621 53 L-609 61 L-597 61 L-585 72 L-572 73 L-548 85 L-536 86 L-511 106 L-505 116 L-511 123 L-536 119 L-560 102 L-568 104 L-572 105 L-589 140 L-572 158 L-548 162 L-487 188 L-475 184 L-470 177 L-456 92 L-445 67 L-463 51 L-487 49 L-511 37 L-524 37 L-548 26 L-572 24 L-597 14 L-621 9 L-634 1 L-682 -12 L-695 -12 L-707 -22 L-731 -28 L-753 18 L-770 43 Z M-728 -238 L-725 -177 L-719 -171 L-536 -173 L-528 -189 L-530 -214 L-524 -220 L-499 -216 L-499 -104 L-511 -98 L-523 -104 L-525 -128 L-536 -134 L-719 -138 L-725 -128 L-725 -67 L-719 -61 L-695 -51 L-670 -47 L-658 -38 L-634 -33 L-621 -26 L-597 -24 L-572 -13 L-548 -10 L-536 -2 L-499 2 L-475 12 L-463 12 L-449 6 L-444 -31 L-444 -311 L-450 -321 L-499 -308 L-536 -302 L-548 -293 L-585 -292 L-597 -283 L-621 -280 L-646 -269 L-658 -269 L-682 -257 L-707 -254 Z M-693 177 L-548 357 L-524 381 L-511 384 L-505 373 L-581 275 L-615 238 L-640 202 L-670 172 L-682 171 Z M-530 421 L-414 568 L-292 564 L14 571 L112 569 L234 574 L246 572 L250 568 L252 421 L246 415 L-292 415 L-298 421 L-297 446 L-292 458 L-279 464 L-218 461 L-206 457 L-195 470 L-192 519 L-200 531 L-206 533 L-230 523 L-233 519 L-227 507 L-230 495 L-243 489 L-279 492 L-285 507 L-280 519 L-292 525 L-304 523 L-328 525 L-377 521 L-389 516 L-401 493 L-439 483 L-445 470 L-438 463 L-377 464 L-371 470 L-371 483 L-353 501 L-328 501 L-316 496 L-315 483 L-322 458 L-319 421 L-328 415 L-524 415 Z M-434 -507 L-420 -434 L-414 -422 L-401 -426 L-385 -446 L-365 -479 L-353 -489 L-328 -489 L-316 -487 L-313 -483 L-329 -470 L-353 -438 L-365 -427 L-389 -415 L-401 -418 L-414 -409 L-411 -385 L-401 -369 L-377 -379 L-340 -380 L-292 -391 L-255 -391 L-206 -398 L-133 -403 L-120 -409 L-115 -421 L-114 -434 L-108 -440 L-59 -460 L-50 -446 L-52 -421 L-47 -410 L-35 -403 L38 -403 L75 -392 L136 -391 L197 -379 L234 -379 L258 -367 L270 -368 L275 -373 L277 -409 L273 -421 L255 -434 L246 -446 L243 -458 L234 -464 L228 -458 L228 -446 L222 -440 L197 -452 L179 -470 L185 -476 L197 -476 L234 -489 L255 -507 L254 -519 L246 -524 L209 -525 L173 -536 L136 -537 L87 -549 L-84 -562 L-94 -556 L-94 -544 L-84 -522 L-69 -507 L-66 -495 L-72 -480 L-84 -487 L-108 -489 L-114 -495 L-116 -519 L-128 -556 L-133 -561 L-145 -560 L-230 -550 L-292 -550 L-316 -546 L-340 -537 L-365 -537 L-389 -527 L-426 -523 Z M-432 177 L-432 202 L-426 208 L-414 208 L-389 219 L-365 220 L-359 214 L-360 202 L-396 153 L-395 140 L-389 134 L-374 140 L-349 177 L-340 214 L-328 231 L-292 232 L-255 242 L-218 244 L51 242 L87 232 L124 231 L160 220 L197 218 L211 202 L218 140 L215 79 L209 73 L197 73 L173 86 L99 88 L51 98 L-23 98 L-33 104 L-29 116 L-29 153 L-47 171 L-84 179 L-133 171 L-139 165 L-139 128 L-135 116 L-136 104 L-145 99 L-243 98 L-304 87 L-340 86 L-389 73 L-399 79 L-405 92 L-408 116 Z M-408 -324 L-399 -226 L-401 -177 L-389 -171 L-206 -171 L-195 -165 L-191 -153 L-194 -92 L-182 -82 L-169 -79 L-133 -79 L-114 -67 L-114 -55 L-120 -46 L-133 -41 L-206 -43 L-267 -49 L-273 -55 L-273 -67 L-267 -80 L-230 -76 L-218 -81 L-212 -92 L-212 -128 L-218 -143 L-292 -138 L-389 -140 L-401 -128 L-398 -55 L-408 -18 L-408 18 L-401 27 L-365 35 L-304 37 L-279 45 L-218 49 L-210 43 L-217 -6 L-206 -12 L-194 -12 L-180 -6 L-175 43 L-169 49 L-145 53 L-47 55 L14 49 L87 49 L99 37 L160 36 L234 24 L242 18 L243 -6 L240 -18 L234 -24 L222 -12 L160 -10 L136 0 L130 -6 L130 -18 L148 -32 L234 -37 L264 -92 L264 -128 L258 -137 L173 -144 L160 -138 L154 -128 L155 -104 L148 -98 L136 -104 L99 -98 L93 -104 L117 -128 L112 -141 L14 -144 L3 -128 L5 -79 L-11 -70 L-17 -79 L-17 -189 L-23 -201 L-138 -202 L-150 -189 L-145 -177 L-133 -171 L-47 -171 L-41 -165 L-41 -153 L-47 -144 L-59 -143 L-157 -142 L-172 -153 L-169 -202 L-172 -214 L-157 -228 L-120 -225 L-11 -227 L2 -223 L8 -214 L9 -177 L14 -172 L112 -171 L121 -177 L126 -189 L136 -198 L148 -198 L160 -173 L258 -172 L264 -177 L263 -189 L240 -214 L239 -226 L246 -232 L258 -232 L283 -215 L319 -171 L588 -171 L594 -177 L594 -250 L588 -257 L527 -272 L515 -279 L478 -284 L466 -291 L429 -295 L405 -304 L380 -305 L344 -317 L307 -318 L283 -326 L274 -311 L277 -275 L274 -263 L246 -248 L240 -263 L240 -324 L222 -334 L197 -339 L124 -342 L114 -336 L118 -324 L131 -311 L124 -301 L112 -305 L93 -324 L91 -336 L75 -354 L63 -357 L51 -354 L-206 -354 L-218 -345 L-237 -311 L-257 -287 L-261 -275 L-292 -257 L-316 -257 L-322 -263 L-322 -275 L-316 -284 L-292 -282 L-278 -299 L-273 -324 L-264 -336 L-267 -351 L-279 -354 L-304 -342 L-340 -342 L-389 -335 L-401 -332 Z M-322 605 L-322 617 L-292 647 L-218 647 L-208 641 L-206 629 L-218 611 L-230 608 L-267 611 L-279 600 L-292 599 L-316 599 Z M-301 -605 L-292 -590 L-255 -599 L-230 -599 L-196 -629 L-194 -641 L-206 -647 L-267 -647 L-287 -617 Z M-237 275 L-236 299 L-212 336 L-212 373 L-206 378 L-182 374 L-173 360 L-175 324 L-190 287 L-206 269 L-230 269 Z M-191 -629 L-188 -605 L-182 -599 L-23 -599 L-14 -605 L-10 -629 L-14 -641 L-23 -647 L-35 -644 L-169 -645 L-185 -641 Z M-164 519 L-163 470 L-157 459 L26 463 L38 470 L36 507 L38 519 L26 529 L14 529 L6 519 L8 495 L4 483 L-11 477 L-27 495 L-26 507 L-19 519 L-23 526 L-47 528 L-53 519 L-50 507 L-55 495 L-59 490 L-72 489 L-120 489 L-127 495 L-127 519 L-133 529 L-157 532 Z M-157 617 L-145 638 L-133 646 L-23 644 L-8 617 L-10 605 L-23 600 L-35 604 L-84 606 L-145 599 L-155 605 Z M-118 324 L-118 336 L-108 353 L-59 350 L-51 336 L-59 316 L-108 313 Z M-114 140 L-108 149 L-96 154 L-72 157 L-59 156 L-53 140 L-60 116 L-72 105 L-84 101 L-96 102 L-114 116 Z M11 360 L18 373 L26 379 L38 378 L51 370 L79 324 L86 299 L103 263 L99 259 L75 257 L48 275 L44 287 L34 299 L32 311 L23 324 L17 348 Z M17 -629 L24 -605 L38 -599 L124 -599 L136 -595 L149 -605 L133 -617 L128 -629 L112 -647 L26 -647 L20 -641 Z M30 140 L38 134 L99 133 L173 122 L183 128 L173 144 L124 159 L38 159 L31 153 Z M49 617 L63 638 L75 645 L160 645 L173 640 L179 629 L173 621 L160 615 L148 599 L112 601 L63 599 L52 605 Z M81 470 L87 460 L185 460 L197 464 L203 470 L203 519 L197 527 L160 534 L87 529 L81 519 Z M114 507 L124 513 L148 519 L165 507 L162 495 L148 486 L124 489 L115 495 Z M240 165 L240 189 L246 198 L292 189 L301 177 L295 156 L283 144 L258 147 L247 153 Z M243 79 L258 107 L295 110 L307 121 L331 96 L344 90 L417 71 L429 61 L466 54 L490 46 L503 37 L515 37 L539 24 L551 24 L564 16 L567 18 L570 31 L564 37 L539 39 L527 49 L515 51 L490 73 L393 99 L344 122 L338 128 L340 165 L356 171 L393 155 L405 147 L417 147 L466 122 L478 121 L515 101 L527 98 L539 88 L551 85 L564 73 L576 72 L594 55 L594 18 L601 -6 L595 -18 L588 -23 L576 -15 L527 -3 L490 3 L466 12 L441 14 L417 24 L393 29 L380 37 L356 38 L331 49 L307 50 L270 61 L258 61 L250 67 Z M274 519 L283 525 L393 527 L410 519 L420 495 L429 488 L441 492 L454 501 L478 503 L490 503 L496 495 L478 478 L454 465 L429 466 L417 485 L405 478 L331 480 L283 476 L277 483 Z M284 -67 L289 -55 L284 6 L295 12 L307 12 L331 0 L368 -5 L380 -12 L405 -15 L429 -24 L454 -25 L478 -37 L503 -39 L527 -49 L588 -61 L594 -67 L594 -128 L588 -137 L564 -134 L319 -137 L308 -128 L301 -92 L289 -79 Z M286 -458 L289 -446 L301 -434 L311 -397 L310 -373 L319 -356 L356 -352 L380 -343 L405 -342 L441 -331 L466 -330 L490 -319 L564 -303 L588 -293 L594 -299 L597 -311 L594 -348 L600 -385 L588 -398 L564 -413 L551 -415 L539 -425 L515 -435 L490 -440 L466 -452 L454 -452 L441 -461 L319 -501 L307 -501 L289 -483 Z M289 434 L295 444 L368 440 L405 403 L417 403 L423 409 L423 434 L429 440 L466 437 L557 360 L551 347 L539 354 L380 352 L356 376 L331 391 Z M289 568 L331 621 L405 623 L417 617 L395 568 L368 550 L357 556 L354 568 L344 576 L331 564 L319 562 L295 560 Z M345 -421 L356 -428 L368 -428 L393 -415 L405 -415 L417 -405 L441 -401 L454 -392 L466 -391 L490 -379 L503 -379 L515 -368 L564 -352 L569 -336 L564 -332 L551 -340 L539 -342 L515 -354 L503 -354 L478 -366 L466 -366 L441 -379 L429 -379 L405 -391 L393 -391 L368 -403 Z M545 -483 L545 -470 L554 -458 L576 -449 L588 -452 L594 -458 L593 -483 L603 -495 L606 -507 L600 -517 L588 -518 L576 -513 Z M570 128 L570 140 L594 165 L619 214 L637 236 L649 244 L808 244 L814 238 L792 214 L789 202 L761 165 L747 159 L735 147 L698 147 L692 153 L692 165 L698 171 L710 171 L726 177 L726 189 L722 193 L674 187 L658 177 L649 156 L631 140 L637 128 L649 122 L661 121 L674 131 L686 134 L691 128 L701 116 L701 104 L698 92 L686 77 L674 80 L649 98 L637 99 L625 110 L612 110 L588 122 L576 122 Z M594 -556 L600 -550 L661 -550 L686 -580 L698 -586 L722 -586 L728 -580 L684 -519 L680 -507 L682 -495 L686 -490 L710 -492 L722 -486 L747 -455 L771 -442 L777 -458 L777 -580 L826 -629 L820 -640 L796 -635 L686 -635 L674 -639 L661 -635 L633 -605 L619 -580 Z M608 -446 L637 -417 L661 -411 L686 -391 L700 -397 L704 -421 L700 -434 L686 -443 L637 -455 L612 -453 Z M622 -92 L624 -79 L637 -73 L649 -81 L674 -83 L680 -92 L680 -128 L676 -140 L649 -138 L637 -143 L624 -128 Z M626 -238 L631 -177 L637 -171 L674 -171 L680 -177 L680 -189 L680 -226 L674 -238 L637 -249 Z M626 -18 L629 31 L637 41 L674 24 L680 18 L682 -43 L674 -49 L661 -41 L637 -37 Z M629 -299 L631 -287 L637 -281 L661 -278 L674 -269 L682 -275 L682 -348 L637 -371 L631 -360 Z M716 -287 L716 -263 L722 -250 L783 -229 L790 -238 L788 -263 L802 -275 L792 -287 L735 -323 L722 -322 L717 -311 Z M716 -214 L716 -177 L722 -162 L735 -171 L747 -172 L771 -162 L775 -165 L782 -177 L777 -202 L771 -208 L722 -229 Z M716 -140 L717 -92 L722 -84 L784 -116 L783 -140 L771 -147 L759 -144 L722 -150 Z M717 -67 L717 -18 L722 -7 L735 -7 L747 -13 L771 -25 L795 -43 L780 -67 L787 -79 L783 -83 L759 -84 L722 -76 Z M729 79 L741 104 L731 116 L735 123 L747 134 L759 137 L777 116 L787 92 L790 55 L799 43 L799 31 L796 27 L783 33 L771 45 L735 63 L730 67 Z M738 -385 L742 -373 L771 -350 L783 -352 L799 -373 L790 -385 L771 -391 L759 -403 L747 -403 L741 -397 Z M814 -104 L814 -55 L820 -49 L869 -74 L881 -86 L893 -89 L942 -122 L954 -124 L980 -140 L979 -145 L967 -147 L930 -143 L881 -133 L857 -123 L845 -113 L840 -116 L845 -125 L865 -140 L857 -145 L832 -144 L818 -128 Z M815 -189 L820 -181 L832 -172 L967 -168 L977 -177 L954 -194 L942 -198 L918 -216 L881 -235 L857 -254 L845 -257 L832 -266 L821 -263 Z"/>
</svg>
