<?xml version="1.0" encoding="UTF-8"?>
<!-- Wareborn alliance emblem object: anvil (objects, sheet index 19).
     Traced by tools/emblem-objects/trace_objects.py.
     Coordinates are thousandths of the painter's [-1, 1] box, y down,
     filled NON-ZERO. The colour here is the source ink and is NOT part
     of the object - the emblem system colours every layer itself. -->
<svg xmlns="http://www.w3.org/2000/svg" viewBox="-1000 -1000 2000 2000"
     width="256" height="256">
  <path fill="#21626D" fill-rule="nonzero" d="M-980 -574 L-966 -558 L-965 -542 L-953 -526 L-950 -510 L-901 -431 L-863 -392 L-784 -334 L-768 -341 L-748 -368 L-743 -400 L-736 -403 L-704 -381 L-689 -376 L-673 -361 L-657 -360 L-625 -344 L-594 -340 L-551 -320 L-553 -305 L-562 -299 L-609 -322 L-625 -321 L-657 -294 L-662 -289 L-661 -273 L-625 -250 L-609 -249 L-594 -238 L-562 -229 L-546 -220 L-514 -214 L-483 -216 L-451 -209 L-439 -225 L-443 -241 L-441 -574 L-451 -590 L-958 -590 L-974 -587 Z M-801 -495 L-784 -503 L-768 -499 L-546 -503 L-538 -495 L-546 -460 L-578 -471 L-784 -471 Z M-580 661 L-580 677 L-562 685 L-309 685 L-301 677 L-305 630 L-317 614 L-340 607 L-348 598 L-340 574 L-324 562 L-309 560 L-293 570 L-261 558 L-245 570 L-214 564 L-166 586 L-150 587 L-142 566 L-140 487 L-150 479 L-435 479 L-562 470 L-570 487 L-570 630 Z M-473 582 L-451 569 L-404 572 L-395 582 L-404 597 L-419 602 L-451 601 L-467 592 Z M-458 408 L-453 424 L-435 431 L-324 426 L-103 430 L-86 408 L-74 329 L-87 313 L-293 321 L-309 309 L-324 305 L-435 305 L-447 313 Z M-396 -162 L-388 -150 L-372 -146 L-214 -154 L-204 -146 L-206 -130 L-219 -115 L-228 -83 L-220 -67 L-198 -51 L-190 -35 L-190 139 L-216 186 L-227 218 L-253 250 L-245 261 L-229 258 L-8 256 L-1 250 L3 202 L32 139 L40 131 L166 130 L261 131 L293 161 L309 163 L317 170 L330 202 L334 250 L341 256 L356 260 L546 259 L554 250 L528 218 L507 170 L493 155 L490 139 L491 -51 L494 -67 L507 -83 L501 -99 L483 -104 L436 -106 L420 -97 L412 -83 L412 -67 L382 -4 L387 28 L372 43 L351 12 L350 -4 L364 -20 L368 -67 L379 -83 L380 -99 L394 -115 L396 -130 L408 -146 L412 -162 L426 -178 L430 -194 L451 -221 L464 -210 L457 -162 L467 -154 L531 -147 L554 -162 L594 -215 L626 -233 L641 -249 L689 -278 L705 -281 L721 -294 L784 -318 L805 -336 L800 -341 L752 -347 L578 -348 L182 -344 L172 -336 L165 -273 L178 -241 L209 -225 L203 -194 L198 -188 L182 -194 L135 -188 L119 -216 L87 -195 L66 -225 L71 -232 L87 -235 L119 -234 L136 -257 L138 -336 L119 -350 L-261 -344 L-279 -352 L-285 -384 L-277 -392 L-214 -392 L-198 -401 L-166 -392 L388 -392 L404 -410 L420 -419 L436 -396 L451 -392 L847 -394 L855 -384 L848 -368 L854 -352 L863 -347 L911 -360 L958 -362 L974 -371 L980 -384 L978 -510 L958 -518 L-24 -516 L-356 -518 L-388 -522 L-393 -510 Z M-394 -669 L-393 -605 L-381 -558 L-372 -552 L-356 -559 L-309 -550 L-293 -554 L-277 -571 L-245 -575 L103 -570 L578 -570 L800 -576 L958 -570 L971 -590 L949 -637 L964 -669 L958 -678 L942 -683 L705 -680 L-372 -685 L-388 -678 Z M-256 -257 L-245 -271 L-229 -266 L-134 -265 L-115 -257 L-119 -245 L-182 -243 L-245 -246 Z M-103 -99 L-87 -107 L-68 -83 L-53 -35 L-54 -4 L-47 12 L-47 44 L-63 75 L-63 107 L-71 125 L-87 129 L-92 123 L-96 -67 Z M-95 487 L-95 582 L-87 592 L103 590 L116 582 L127 550 L135 541 L166 533 L186 550 L190 582 L198 590 L372 590 L392 582 L388 487 L372 479 L341 479 L332 471 L333 329 L309 309 L-8 315 L-24 319 L-32 329 L-34 376 L-47 408 L-39 422 L-21 440 L-19 455 L-39 479 L-87 479 Z M30 -4 L40 -23 L135 -26 L141 -35 L132 -83 L132 -130 L151 -138 L167 -130 L165 -35 L182 -24 L261 -28 L280 -4 L270 12 L261 17 L182 10 L151 14 L119 6 L40 12 Z M32 250 L40 261 L277 260 L292 250 L285 218 L261 198 L230 178 L182 168 L166 172 L103 169 L71 178 L48 202 L48 218 L35 234 Z M63 503 L70 440 L76 424 L87 416 L214 416 L225 424 L232 440 L236 487 L235 519 L230 528 L214 521 L216 503 L198 492 L103 495 L91 503 L88 519 L91 535 L87 540 L71 545 L63 535 Z M129 -447 L151 -468 L166 -468 L184 -447 L166 -429 L151 -429 L135 -437 Z M367 329 L377 345 L380 408 L382 424 L388 430 L641 427 L736 432 L747 424 L744 313 L736 305 L610 305 L578 317 L388 310 Z M433 550 L433 566 L451 576 L483 572 L515 553 L531 555 L562 574 L578 574 L586 582 L598 614 L603 677 L610 684 L863 685 L873 677 L865 566 L867 487 L847 467 L736 473 L705 479 L451 479 L436 487 Z M520 -447 L531 -463 L546 -469 L578 -473 L587 -463 L587 -447 L578 -439 L546 -439 Z M689 582 L705 574 L752 577 L761 598 L752 606 L705 606 L694 598 Z"/>
</svg>
